<svg width="1278" height="1259" viewBox="0 0 1278 1259" fill="none" xmlns="http://www.w3.org/2000/svg">
<path fill-rule="evenodd" clip-rule="evenodd" d="M934.212 321.406C1010.22 365.352 1063.92 446.427 1080.52 532.602C1096.4 615.087 1044.48 690.416 1020.79 770.969C995.204 857.975 1001.98 959.958 936.423 1022.61C866.993 1088.96 764.216 1115.78 668.458 1107.66C575.448 1099.78 505.257 1030.62 427.163 979.438C341.09 923.031 236.535 885.694 189.841 794.009C138.804 693.797 113.429 565.416 165.624 465.903C216.811 368.312 340.258 337.95 445.777 306.054C525.851 281.849 607.024 304.564 690.662 307.193C773.98 309.812 862.023 279.668 934.212 321.406Z" fill="url(#paint0_linear)"/>
<defs>
<linearGradient id="paint0_linear" x1="521" y1="0" x2="1278.68" y2="654.868" gradientUnits="userSpaceOnUse">
<stop stop-color="#F857FF"/>
<stop offset="1" stop-color="#A452FF"/>
<stop offset="1" stop-color="#A452FF"/>
</linearGradient>
</defs>
</svg>
